<?xml version="1.0" encoding="UTF-8"?>
<svg width="158px" height="24px" viewBox="0 0 158 24" version="1.1" xmlns="http://www.w3.org/2000/svg" xmlns:xlink="http://www.w3.org/1999/xlink">
    <!-- Generator: Sketch 50.2 (55047) - http://www.bohemiancoding.com/sketch -->
    <title>logo</title>
    <desc>Created with Sketch.</desc>
    <defs></defs>
    <g id="UI" stroke="none" stroke-width="1" fill="none" fill-rule="evenodd">
        <g id="ux-unicorn_desafio-01_desktop" transform="translate(-24.000000, -24.000000)">
            <g id="Group-8">
                <g id="Group-3">
                    <g id="logo" transform="translate(24.000000, 24.000000)">
                        <polygon id="Fill-1" fill="#000000" points="24.6028854 22.3410337 34.0480989 3.01725843 36.392009 4.1061573 26.9467955 23.4299326"></polygon>
                        <polygon id="Fill-2" fill="#000000" points="42.9133483 20.626409 40.2676854 20.626409 35.4639101 9.04142022 38.712809 9.04142022 41.590382 16.6181393 44.375191 9.04142022 47.4852135 9.04142022"></polygon>
                        <path d="M50.8041438,13.5132674 L55.9096719,13.5132674 C55.7937169,12.0072 54.8884584,11.1032899 53.3802337,11.1032899 C51.9181213,11.1032899 51.0595146,12.0072 50.8041438,13.5132674 Z M53.6353348,20.9276494 C50.2009079,20.9276494 47.624818,18.3790652 47.624818,14.8338067 C47.624818,11.1728629 49.9455371,8.74023371 53.4034247,8.74023371 C56.9540764,8.74023371 58.9730427,11.1264809 58.9730427,14.3705258 C58.9730427,14.8108854 58.9498517,15.3901213 58.8570876,15.8765933 L50.7345708,15.8765933 C50.9896719,17.3826607 52.0108854,18.3094921 53.6353348,18.2863011 C54.6101663,18.2863011 55.7009528,17.7998292 56.4436045,16.5717843 L58.8570876,17.8227506 C57.6503461,19.9080539 56.1186607,20.9276494 53.6353348,20.9276494 Z" id="Fill-3" fill="#000000"></path>
                        <path d="M64.7284045,8.69382472 C66.6314157,8.69382472 68.0239551,9.62065618 68.7897978,10.6866337 L66.9331685,12.3547685 C66.5386517,11.7987236 65.703236,11.219218 64.5657978,11.219218 C63.637618,11.219218 63.034382,11.6131955 63.034382,12.3083865 C63.034382,12.9108135 63.4057079,13.2816 65.0301573,13.6523865 C67.4436404,14.2081618 68.9057528,15.1352629 68.9057528,17.2898697 C68.9057528,19.5143191 66.9795506,20.9276225 64.4733034,20.9276225 C62.6166742,20.9276225 61.1545618,20.0932854 60.0405843,18.4022292 L61.9204045,16.8729708 C63.011191,18.1473978 63.7306517,18.4947236 64.8211685,18.4947236 C65.6104719,18.4947236 66.1905169,18.0778247 66.1905169,17.4522067 C66.1905169,16.6645213 65.4478652,16.3169258 63.4288989,15.8765663 C61.5258876,15.4593978 60.3655281,14.4168809 60.3655281,12.3083865 C60.3655281,10.3390382 62.0131685,8.69382472 64.7284045,8.69382472" id="Fill-5" fill="#000000"></path>
                        <path d="M69.9734022,9.04144719 L71.6442337,9.04144719 L72.1549753,6.14526742 L74.7310652,6.14526742 L74.7310652,9.04144719 L77.1445483,9.04144719 L77.1445483,11.6364135 L74.7310652,11.6364135 L74.7310652,16.8498067 C74.7310652,17.7302562 75.2415371,18.1474247 75.9143461,18.1474247 C76.4482787,18.1474247 76.8196045,18.0778517 77.1445483,17.9850876 L77.1445483,20.6032449 C76.6569978,20.7192 76.1001438,20.8348854 75.4038742,20.8348854 C73.1295371,20.8348854 71.7140764,19.7227955 71.7140764,17.2667056 L71.7140764,11.6364135 L69.9734022,11.6364135 L69.9734022,9.04144719 Z" id="Fill-7" fill="#000000"></path>
                        <path d="M79.3027416,20.6263281 L82.3197303,20.6263281 L82.3197303,9.04133933 L79.3027416,9.04133933 L79.3027416,20.6263281 Z M80.8115056,3.57338427 C81.8788315,3.57338427 82.7142472,4.4306427 82.7142472,5.49635056 C82.7142472,6.51594607 81.8788315,7.37320449 80.8115056,7.37320449 C79.7671011,7.37320449 78.9082247,6.51594607 78.9082247,5.49635056 C78.9082247,4.4306427 79.7671011,3.57338427 80.8115056,3.57338427 Z" id="Fill-9" fill="#000000"></path>
                        <path d="M88.1446921,14.8339416 C88.1446921,16.8960539 89.0960629,18.2400539 90.8831191,18.2400539 C92.5307596,18.2400539 93.6215461,16.8960539 93.6215461,14.8339416 C93.6215461,12.7718292 92.5307596,11.4278292 90.8831191,11.4278292 C89.0960629,11.4278292 88.1446921,12.7718292 88.1446921,14.8339416 M91.2312539,20.9277843 C89.8387146,20.9277843 88.6783551,20.2787056 87.8197483,19.3057618 L87.5878382,20.6263011 L85.1277034,20.6263011 L85.1277034,4.40742472 L88.1446921,4.40742472 L88.1446921,9.96814382 C88.9569169,9.20364944 90.0013213,8.74009888 91.2312539,8.74009888 C94.3873888,8.74009888 96.6849169,11.3118742 96.6849169,14.8339416 C96.6849169,18.3789303 94.3873888,20.9277843 91.2312539,20.9277843" id="Fill-11" fill="#000000"></path>
                        <path d="M106.176971,19.5374831 C105.178948,20.4179326 103.80987,20.9275955 102.556746,20.9275955 C98.9362517,20.9275955 98.4721618,18.5410787 98.4721618,16.1313708 L98.4721618,9.04139326 L101.489151,9.04139326 L101.489151,16.2241348 C101.489151,17.8229663 101.976431,18.2630562 103.276207,18.2630562 C104.158004,18.2630562 105.109375,17.8229663 105.828836,17.1506966 L105.828836,9.04139326 L108.845825,9.04139326 L108.845825,20.626382 L106.38569,20.626382 L106.176971,19.5374831 Z" id="Fill-12" fill="#000000"></path>
                        <path d="M114.508584,20.7422831 C112.420045,20.7422831 111.189843,19.6533843 111.189843,17.2202157 L111.189843,4.40745169 L114.206831,4.40745169 L114.206831,16.5716764 C114.206831,17.5216989 114.554966,17.8924854 115.344,17.8924854 L115.344,20.6959011 C115.11209,20.7190921 114.833528,20.7422831 114.508584,20.7422831" id="Fill-13" fill="#000000"></path>
                        <path d="M119.405204,17.0349573 C119.405204,17.9620584 120.263811,18.5642157 121.331407,18.5642157 C122.422193,18.5642157 123.234418,17.9620584 123.257609,17.0349573 C123.257609,16.1081258 122.445115,15.4825079 121.331407,15.4825079 C120.263811,15.4825079 119.405204,16.1081258 119.405204,17.0349573 Z M124.046643,19.6070022 C123.211227,20.4178787 121.981294,20.9507326 120.70471,20.9507326 C118.383991,20.9507326 116.341834,19.2825978 116.341834,17.0349573 C116.341834,14.5791371 118.383991,13.0962607 120.867317,13.0962607 C122.12044,13.0962607 122.955856,13.5595416 123.535901,14.0923955 L123.535901,12.8875416 C123.535901,11.9377888 122.770328,11.2655191 121.331407,11.2655191 C120.47253,11.2655191 119.405204,11.4278562 118.175002,12.0998562 L117.316396,9.87540674 C118.801699,9.11091236 120.078283,8.74012584 121.841879,8.74012584 C124.974822,8.74012584 126.55289,10.5012944 126.55289,13.3974742 L126.55289,20.6263281 L124.185789,20.6263281 L124.046643,19.6070022 Z" id="Fill-14" fill="#000000"></path>
                        <path d="M131.914112,12.5863011 L131.914112,20.6263011 L128.897124,20.6263011 L128.897124,9.04131236 L131.357258,9.04131236 L131.542787,10.1304809 C132.33182,9.43528989 133.608135,8.74009888 134.722112,8.74009888 C135.186202,8.74009888 135.627371,8.80967191 135.859281,8.94881798 L135.859281,11.6826607 L135.13982,11.6826607 C133.561753,11.6826607 132.540809,11.9609528 131.914112,12.5863011" id="Fill-15" fill="#000000"></path>
                        <path d="M139.804773,13.5132674 L144.910301,13.5132674 C144.794346,12.0072 143.889088,11.1032899 142.380863,11.1032899 C140.918751,11.1032899 140.060144,12.0072 139.804773,13.5132674 M142.635964,20.9276494 C139.201537,20.9276494 136.625447,18.3790652 136.625447,14.8338067 C136.625447,11.1728629 138.946166,8.74023371 142.404054,8.74023371 C145.954706,8.74023371 147.973672,11.1264809 147.973672,14.3705258 C147.973672,14.8108854 147.950481,15.3901213 147.857717,15.8765933 L139.7352,15.8765933 C139.990301,17.3826607 141.011515,18.3094921 142.635964,18.2863011 C143.610796,18.2863011 144.701582,17.7998292 145.444234,16.5717843 L147.857717,17.8227506 C146.650975,19.9080539 145.11929,20.9276494 142.635964,20.9276494" id="Fill-16" fill="#000000"></path>
                        <path d="M153.729007,8.69382472 C155.632018,8.69382472 157.024557,9.62065618 157.7904,10.6866337 L155.933771,12.3547685 C155.539254,11.7987236 154.703838,11.219218 153.5664,11.219218 C152.63822,11.219218 152.034984,11.6131955 152.034984,12.3083865 C152.034984,12.9108135 152.40631,13.2816 154.03076,13.6523865 C156.444243,14.2081618 157.906355,15.1352629 157.906355,17.2898697 C157.906355,19.5143191 155.980153,20.9276225 153.473906,20.9276225 C151.617276,20.9276225 150.155164,20.0932854 149.041187,18.4022292 L150.921007,16.8729708 C152.011793,18.1473978 152.731254,18.4947236 153.821771,18.4947236 C154.611074,18.4947236 155.191119,18.0778247 155.191119,17.4522067 C155.191119,16.6645213 154.448467,16.3169258 152.429501,15.8765663 C150.52649,15.4593978 149.36613,14.4168809 149.36613,12.3083865 C149.36613,10.3390382 151.013771,8.69382472 153.729007,8.69382472" id="Fill-17" fill="#000000"></path>
                        <path d="M17.4509663,2.05403676 L2.34957303,4.87417159 C1.05734831,5.10635137 0,6.37295811 0,7.89898058 L0,17.4285986 C0,18.9926435 1.05573034,20.231475 2.34579775,20.4757896 L17.4560899,23.4577222 C19.3706966,23.8209581 20.9371685,22.4003738 20.9371685,20.3636098 L20.9371685,5.28945249 C20.9371685,3.03965474 19.3682697,1.70940755 17.4509663,2.05403676" id="Fill-18" fill="#FB7B01"></path>
                        <path d="M7.11047191,12.664773 C7.11047191,14.9062112 8.29617978,16.3669753 10.0872809,16.3669753 C12.0296629,16.3669753 13.0640899,14.9062112 13.0640899,12.664773 C13.0640899,10.4230652 12.0296629,8.96257079 10.0872809,8.96257079 C8.29617978,8.96257079 7.11047191,10.4230652 7.11047191,12.664773 Z M13.4173483,17.5254472 C12.4840449,18.5833348 11.2225618,19.2882337 9.70894382,19.2882337 C6.27775281,19.2882337 3.78013483,16.5182562 3.78013483,12.664773 C3.78013483,8.8366382 6.27775281,6.04131236 9.70894382,6.04131236 C11.0459326,6.04131236 12.1809438,6.5450427 13.0640899,7.37587416 L13.0640899,0.269716854 L16.3437303,0.269716854 L16.3437303,18.9611326 L13.6694831,18.9611326 L13.4173483,17.5254472 Z" id="Fill-19" fill="#000000"></path>
                    </g>
                </g>
            </g>
        </g>
    </g>
</svg>