<?xml version="1.0" encoding="UTF-8"?>
<svg width="17px" height="17px" viewBox="0 0 17 17" version="1.1" xmlns="http://www.w3.org/2000/svg" xmlns:xlink="http://www.w3.org/1999/xlink">
    <!-- Generator: Sketch 50.2 (55047) - http://www.bohemiancoding.com/sketch -->
    <title>instagram-icon</title>
    <desc>Created with Sketch.</desc>
    <defs></defs>
    <g id="UI" stroke="none" stroke-width="1" fill="none" fill-rule="evenodd">
        <g id="ux-unicorn_desafio-01_desktop" transform="translate(-1273.000000, -846.000000)" fill="#999999">
            <g id="Socials" transform="translate(1116.000000, 838.000000)">
                <g id="Group-16" transform="translate(12.000000, 8.000000)">
                    <g id="instagram-icon" transform="translate(145.000000, 0.000000)">
                        <path d="M8.76447313,0 C6.568846,0 6.29353417,0.00978174603 5.43127124,0.0511349206 C4.57074124,0.0923869048 3.98308414,0.236043651 3.46881999,0.446081349 C2.93719441,0.663236111 2.4863428,0.953787698 2.03690321,1.42617857 C1.58746362,1.89860317 1.31102859,2.37247817 1.10442437,2.93125198 C0.904559338,3.47174405 0.767914299,4.08944444 0.728634466,4.99388492 C0.689290451,5.90021429 0.679983954,6.18958532 0.679983954,8.49733532 C0.679983954,10.8050516 0.689290451,11.0944226 0.728634466,12.000752 C0.767914299,12.9051925 0.904559338,13.5228929 1.10442437,14.0633849 C1.31102859,14.6221587 1.58746362,15.0960337 2.03690321,15.5684583 C2.4863428,16.0408492 2.93719441,16.3314008 3.46881999,16.5485556 C3.98308414,16.7585933 4.57074124,16.90225 5.43127124,16.943502 C6.29353417,16.9848889 6.568846,16.9946369 8.76447313,16.9946369 C10.9601002,16.9946369 11.23538,16.9848889 12.097675,16.943502 C12.958205,16.90225 13.5458621,16.7585933 14.0601263,16.5485556 C14.5917518,16.3314008 15.0426035,16.0408492 15.492043,15.5684583 C15.9414826,15.0960337 16.2179177,14.6221587 16.4245219,14.0633849 C16.6243869,13.5228929 16.761032,12.9051925 16.8003118,12.000752 C16.8396558,11.0944226 16.8489302,10.8050516 16.8489302,8.49733532 C16.8489302,6.18958532 16.8396558,5.90021429 16.8003118,4.99388492 C16.761032,4.08944444 16.6243869,3.47174405 16.4245219,2.93125198 C16.2179177,2.37247817 15.9414826,1.89860317 15.492043,1.42617857 C15.0426035,0.953787698 14.5917518,0.663236111 14.0601263,0.446081349 C13.5458621,0.236043651 12.958205,0.0923869048 12.097675,0.0511349206 C11.23538,0.00978174603 10.9601002,0 8.76447313,0 M8.76447313,1.53104563 C10.923131,1.53104563 11.1788029,1.53971429 12.031278,1.58059524 C12.8195061,1.61837302 13.2475729,1.75680159 13.53248,1.87317063 C13.9098103,2.02731746 14.1791531,2.2114504 14.4620385,2.50881548 C14.7449239,2.80614683 14.9201428,3.08921032 15.0667683,3.48584325 C15.1774835,3.78526587 15.3091864,4.23519246 15.3451609,5.06367262 C15.3840556,5.95968056 15.392271,6.22844246 15.392271,8.49733532 C15.392271,10.7661944 15.3840556,11.0349563 15.3451609,11.9309643 C15.3091864,12.7594444 15.1774835,13.209371 15.0667683,13.5087937 C14.9201428,13.9054266 14.7449239,14.1884901 14.4620385,14.4858214 C14.1791531,14.7831865 13.9098103,14.9673194 13.53248,15.1214663 C13.2475729,15.2378353 12.8195061,15.3762639 12.031278,15.4140417 C11.1789313,15.4549226 10.9232594,15.4635913 8.76447313,15.4635913 C6.60568689,15.4635913 6.35001498,15.4549226 5.49766828,15.4140417 C4.70944013,15.3762639 4.2813413,15.2378353 3.99646624,15.1214663 C3.61913595,14.9673194 3.34979311,14.7831865 3.06690771,14.4858214 C2.78402232,14.1884901 2.60880345,13.9054266 2.46214591,13.5087937 C2.35146279,13.209371 2.21975982,12.7594444 2.18378539,11.9309643 C2.14489066,11.0349563 2.13667527,10.7661944 2.13667527,8.49733532 C2.13667527,6.22844246 2.14489066,5.95968056 2.18378539,5.06367262 C2.21975982,4.23519246 2.35146279,3.78526587 2.46214591,3.48584325 C2.60880345,3.08921032 2.78402232,2.80614683 3.06690771,2.50881548 C3.34979311,2.2114504 3.61913595,2.02731746 3.99646624,1.87317063 C4.2813413,1.75680159 4.70944013,1.61837302 5.49763619,1.58059524 C6.35014334,1.53971429 6.60581526,1.53104563 8.76447313,1.53104563" id="Fill-1"></path>
                        <path d="M8.76447313,11.3297579 C7.27617182,11.3297579 6.06963271,10.0616389 6.06963271,8.49733532 C6.06963271,6.93299802 7.27617182,5.66487897 8.76447313,5.66487897 C10.2527744,5.66487897 11.4592815,6.93299802 11.4592815,8.49733532 C11.4592815,10.0616389 10.2527744,11.3297579 8.76447313,11.3297579 M8.76447313,4.13383333 C11.0572729,4.13383333 12.9159728,6.08741667 12.9159728,8.49733532 C12.9159728,10.9072202 11.0572729,12.8608036 8.76447313,12.8608036 C6.47167335,12.8608036 4.61297348,10.9072202 4.61297348,8.49733532 C4.61297348,6.08741667 6.47167335,4.13383333 8.76447313,4.13383333 Z M14.0501234,3.96142837 C14.0501234,4.5245871 13.6157667,4.98109107 13.0800014,4.98109107 C12.5442039,4.98109107 12.1098473,4.5245871 12.1098473,3.96142837 C12.1098473,3.39826964 12.5442039,2.94176567 13.0800014,2.94176567 C13.6157667,2.94176567 14.0501234,3.39826964 14.0501234,3.96142837 Z" id="Combined-Shape"></path>
                    </g>
                </g>
            </g>
        </g>
    </g>
</svg>