<?xml version="1.0" encoding="UTF-8"?>
<svg width="18px" height="15px" viewBox="0 0 18 15" version="1.1" xmlns="http://www.w3.org/2000/svg" xmlns:xlink="http://www.w3.org/1999/xlink">
    <!-- Generator: Sketch 50.2 (55047) - http://www.bohemiancoding.com/sketch -->
    <title>twitter-icon</title>
    <desc>Created with Sketch.</desc>
    <defs></defs>
    <g id="UI" stroke="none" stroke-width="1" fill="none" fill-rule="evenodd">
        <g id="ux-unicorn_desafio-01_desktop" transform="translate(-1174.000000, -847.000000)" fill="#999999">
            <g id="Socials" transform="translate(1116.000000, 838.000000)">
                <g id="Group-16" transform="translate(12.000000, 8.000000)">
                    <path d="M51.66064,16 C58.45312,16 62.16832,10.228602 62.16832,5.22367167 C62.16832,5.05974506 62.16832,4.89655686 62.15752,4.73410707 C62.8802786,4.19795694 63.5041759,3.5341048 64,2.77363347 C63.3259929,3.07992648 62.6109971,3.28079334 61.87888,3.36952884 C62.6498157,2.89619598 63.2268089,2.15172546 63.50248,1.27466496 C62.7775534,1.71583082 61.9844652,2.02674252 61.15744,2.19398309 C60.0126996,0.945626069 58.1937179,0.6400863 56.7204755,1.44869294 C55.247233,2.25729957 54.486118,3.97895607 54.86392,5.64825635 C51.8945649,5.49559012 49.1280226,4.05722552 47.2528,1.69112715 C46.2726084,3.42169348 46.7732713,5.63559965 48.39616,6.74700765 C47.8084537,6.72914375 47.2335611,6.56655043 46.72,6.27294963 L46.72,6.32094616 C46.7204811,8.12383827 47.9596611,9.67666789 49.6828,10.0336623 C49.1391061,10.1857301 48.568658,10.2079593 48.01528,10.0986422 C48.4990825,11.641489 49.8855337,12.6984176 51.46552,12.728852 C50.1578092,13.7828793 48.5423628,14.3550687 46.87912,14.3533499 C46.5852906,14.3527714 46.2917469,14.334526 46,14.2987077 C47.6888579,15.4102161 49.6539376,15.999791 51.66064,15.9970464" id="twitter-icon"></path>
                </g>
            </g>
        </g>
    </g>
</svg>