<?xml version="1.0" encoding="UTF-8"?>
<svg width="18px" height="13px" viewBox="0 0 18 13" version="1.1" xmlns="http://www.w3.org/2000/svg" xmlns:xlink="http://www.w3.org/1999/xlink">
    <!-- Generator: Sketch 50.2 (55047) - http://www.bohemiancoding.com/sketch -->
    <title>youtube-icon</title>
    <desc>Created with Sketch.</desc>
    <defs></defs>
    <g id="UI" stroke="none" stroke-width="1" fill="none" fill-rule="evenodd">
        <g id="ux-unicorn_desafio-01_desktop" transform="translate(-1223.000000, -848.000000)" fill="#999999">
            <g id="Socials" transform="translate(1116.000000, 838.000000)">
                <g id="Group-16" transform="translate(12.000000, 8.000000)">
                    <path d="M102.141713,10.8974768 L102.140885,5.70415758 L107.004564,8.3098648 L102.141713,10.8974768 Z M112.820255,4.80448287 C112.820255,4.80448287 112.644352,3.53078061 112.104678,2.96988404 C111.420203,2.23369937 110.652975,2.23006223 110.301134,2.18695949 C107.782295,2 104.003903,2 104.003903,2 L103.996079,2 C103.996079,2 100.217776,2 97.6988484,2.18695949 C97.3469894,2.23006223 96.5800436,2.23369937 95.8953222,2.96988404 C95.3556301,3.53078061 95.180009,4.80448287 95.180009,4.80448287 C95.180009,4.80448287 95,6.30021311 95,7.79596143 L95,9.19821192 C95,10.6939241 95.180009,12.1896543 95.180009,12.1896543 C95.180009,12.1896543 95.3556301,13.4633746 95.8953222,14.0242712 C96.5800436,14.7604378 97.4794718,14.7371674 97.8800733,14.8143253 C99.3200923,14.9561192 104.000009,15 104.000009,15 C104.000009,15 107.782295,14.9941553 110.301134,14.8071777 C110.652975,14.764093 111.420203,14.7604378 112.104678,14.0242712 C112.644352,13.4633746 112.820255,12.1896543 112.820255,12.1896543 C112.820255,12.1896543 113,10.6939241 113,9.19821192 L113,7.79596143 C113,6.30021311 112.820255,4.80448287 112.820255,4.80448287 L112.820255,4.80448287 Z" id="youtube-icon"></path>
                </g>
            </g>
        </g>
    </g>
</svg>